<svg xmlns="http://www.w3.org/2000/svg" width="900" height="900" viewBox="0 0 900 900"><rect width="900" height="900" fill="#f8f8f6"/><path d="M150 190h500c70 0 125 55 125 125v90c0 70-55 125-125 125H150z" fill="#1f2937" opacity=".12"/><path d="M130 180h520c82 0 145 63 145 145v10c0 82-63 145-145 145H130z" fill="#ffffff" stroke="#d7d7d2" stroke-width="10"/><rect x="130" y="200" width="173.33333333333331" height="260" fill="#009246"/><rect x="303.3333333333333" y="200" width="173.33333333333331" height="260" fill="#ffffff"/><rect x="476.66666666666663" y="200" width="173.33333333333331" height="260" fill="#ce2b37"/><rect x="130" y="200" width="520" height="260" fill="none" stroke="#111827" stroke-opacity=".18" stroke-width="6"/><path d="M650 220l105 45v130l-105 45z" fill="#e5e7eb" stroke="#d7d7d2" stroke-width="8"/><rect x="205" y="585" width="490" height="46" rx="23" fill="#111827"/><text x="450" y="620" text-anchor="middle" font-family="Arial, Helvetica, sans-serif" font-size="28" font-weight="900" fill="#ffffff">ITALY CAR FLAG</text></svg>